# xmcd
#
# Track frame offsets:
#	150
#	16925
#	28225
#	57812
#	86912
#	111750
#	133375
#	160387
#	190350
#	213662
#
# Disc length: 3288 seconds
#
# Revision: 0
# Processed by: cddbd v1.5.1PL0 Copyright (c) Steve Scherf et al.
# Submitted via: dBpowerAMP V4.0
#
DISCID=930cd60a
DTITLE=Louisiana Red - Blues Classics
DYEAR=1996
DGENRE=Blues
TTITLE0=Anti-Nuclear Blues
TTITLE1=Tribute To Tampa Red
TTITLE2=Still Crying About Detroit
TTITLE3=Arizona Blues
TTITLE4=Prison Blues
TTITLE5=Keep On Slidin' Blues
TTITLE6=Lonesome Train
TTITLE7=My Life With Carey Bell
TTITLE8=No More Destruction In This Land
TTITLE9=Bessie
EXTD=
EXTT0=
EXTT1=
EXTT2=
EXTT3=
EXTT4=
EXTT5=
EXTT6=
EXTT7=
EXTT8=
EXTT9=
PLAYORDER=
